<svg xmlns="http://www.w3.org/2000/svg" width="2048" height="2048" viewBox="0 0 2048 2048">
  <path d="M1106 360h1v1h-1z" fill="#222224" />
  <path d="M714 635h1v1h-1z" fill="#222224" />
  <path d="M938 830h1v1h-1z" fill="#222224" />
  <path d="M1489 843h1v1h-1z" fill="#222224" />
  <path d="M779 892h1v1h-1z" fill="#222224" />
  <path d="M749 974h1v1h-1z" fill="#222224" />
  <path d="M1159 1069h1v1h-1z" fill="#222224" />
  <path d="M1108 1148h1v1h-1z" fill="#222224" />
  <path d="M1109 1168h1v1h-1z" fill="#222224" />
  <path d="M806 1251h1v1h-1z" fill="#222224" />
  <path d="M798 1309h1v1h-1z" fill="#222224" />
  <path d="M932 1379h1v1h-1z" fill="#222224" />
  <path d="M815 1380h1v1h-1z" fill="#222224" />
  <path d="M815 1382h1v1h-1z" fill="#222224" />
  <path d="M815 1385h1v1h-1z" fill="#222224" />
  <path d="M815 1467h1v1h-1z" fill="#222224" />
  <path d="M755 1701h1v1h-1z" fill="#222224" />
  <path d="M771 1721h1v1h-1z" fill="#222224" />
  <path d="M520 1743h1v1h-1z" fill="#222224" />
  <path d="M1022 1749h1v1h-1z" fill="#222224" />
  <path d="M958 1813h1v1h-1z" fill="#222224" />
  <path d="M1189 1814h1v1h-1z" fill="#222224" />
  <path d="M828 1876h1v1h-1z" fill="#222224" />
</svg>
