<svg xmlns="http://www.w3.org/2000/svg" width="2048" height="2048" viewBox="0 0 2048 2048">
  <path d="M1044 343h1v1h-1z" fill="#555756" />
  <path d="M805 451h1v1h-1z" fill="#555756" />
  <path d="M1159 566h1v1h-1z" fill="#555756" />
  <path d="M640 841h1v1h-1z" fill="#555756" />
  <path d="M939 857h1v1h-1z" fill="#555756" />
  <path d="M764 896h1v1h-1z" fill="#555756" />
  <path d="M929 910h1v1h-1z" fill="#555756" />
  <path d="M608 968h1v1h-1z" fill="#555756" />
  <path d="M731 976h1v1h-1z" fill="#555756" />
  <path d="M737 1016h1v1h-1z" fill="#555756" />
  <path d="M735 1026h1v1h-1z" fill="#555756" />
  <path d="M734 1027h1v1h-1z" fill="#555756" />
  <path d="M737 1028h1v1h-1z" fill="#555756" />
  <path d="M728 1029h1v1h-1z" fill="#555756" />
  <path d="M732 1035h1v1h-1z" fill="#555756" />
  <path d="M737 1037h1v1h-1z" fill="#555756" />
  <path d="M733 1038h1v1h-1z" fill="#555756" />
  <path d="M725 1042h1v1h-1z" fill="#555756" />
  <path d="M733 1045h1v1h-1z" fill="#555756" />
  <path d="M737 1055h1v1h-1z" fill="#555756" />
  <path d="M736 1059h1v1h-1z" fill="#555756" />
  <path d="M736 1063h1v1h-1z" fill="#555756" />
  <path d="M730 1067h1v1h-1z" fill="#555756" />
  <path d="M727 1070h1v1h-1z" fill="#555756" />
  <path d="M737 1077h1v1h-1z" fill="#555756" />
  <path d="M736 1078h1v1h-1z" fill="#555756" />
  <path d="M732 1079h1v1h-1z" fill="#555756" />
  <path d="M736 1079h1v1h-1z" fill="#555756" />
  <path d="M752 1094h1v1h-1z" fill="#555756" />
  <path d="M755 1126h1v1h-1z" fill="#555756" />
  <path d="M760 1131h1v1h-1z" fill="#555756" />
  <path d="M764 1138h1v1h-1z" fill="#555756" />
  <path d="M772 1139h1v1h-1z" fill="#555756" />
  <path d="M784 1179h1v1h-1z" fill="#555756" />
  <path d="M776 1183h1v1h-1z" fill="#555756" />
  <path d="M788 1205h1v1h-1z" fill="#555756" />
  <path d="M795 1205h1v1h-1z" fill="#555756" />
  <path d="M797 1215h1v1h-1z" fill="#555756" />
  <path d="M800 1222h1v1h-1z" fill="#555756" />
  <path d="M804 1277h1v1h-1z" fill="#555756" />
  <path d="M797 1283h1v1h-1z" fill="#555756" />
  <path d="M804 1284h1v1h-1z" fill="#555756" />
  <path d="M804 1291h1v1h-1z" fill="#555756" />
  <path d="M800 1304h1v1h-1z" fill="#555756" />
  <path d="M800 1317h2v1h-2z" fill="#555756" />
  <path d="M802 1326h1v1h-1z" fill="#555756" />
  <path d="M859 1478h1v1h-1z" fill="#555756" />
</svg>
