<svg xmlns="http://www.w3.org/2000/svg" width="2048" height="2048" viewBox="0 0 2048 2048">
  <path d="M1070 422h1v1h-1z" fill="#878988" />
  <path d="M1158 568h1v1h-1z" fill="#878988" />
  <path d="M1488 687h1v1h-1z" fill="#878988" />
  <path d="M1488 833h1v1h-1z" fill="#878988" />
  <path d="M1881 866h1v1h-1z" fill="#878988" />
  <path d="M1864 906h1v1h-1z" fill="#878988" />
  <path d="M1186 986h1v1h-1z" fill="#878988" />
  <path d="M1172 1058h1v1h-1z" fill="#878988" />
  <path d="M1257 1134h1v1h-1z" fill="#878988" />
  <path d="M960 1204h1v1h-1z" fill="#878988" />
  <path d="M584 1280h1v1h-1z" fill="#878988" />
  <path d="M609 1488h1v1h-1z" fill="#878988" />
</svg>
