<svg xmlns="http://www.w3.org/2000/svg" width="2048" height="2048" viewBox="0 0 2048 2048">
  <path d="M596 290h1v1h-1z" fill="#4D90BA" />
  <path d="M1305 360h1v1h-1z" fill="#4D90BA" />
  <path d="M841 445h1v1h-1z" fill="#4D90BA" />
  <path d="M659 555h1v1h-1z" fill="#4D90BA" />
  <path d="M657 557h1v1h-1z" fill="#4D90BA" />
  <path d="M1453 565h1v1h-1z" fill="#4D90BA" />
  <path d="M627 586h1v1h-1z" fill="#4D90BA" />
  <path d="M1493 732h1v1h-1z" fill="#4D90BA" />
  <path d="M1222 739h1v1h-1z" fill="#4D90BA" />
  <path d="M1496 739h1v1h-1z" fill="#4D90BA" />
  <path d="M1189 758h1v1h-1z" fill="#4D90BA" />
  <path d="M1182 768h1v1h-1z" fill="#4D90BA" />
  <path d="M802 859h1v1h-1z" fill="#4D90BA" />
  <path d="M904 1027h1v1h-1z" fill="#4D90BA" />
  <path d="M885 1046h1v1h-1z" fill="#4D90BA" />
  <path d="M1136 1048h1v1h-1z" fill="#4D90BA" />
  <path d="M548 1057h1v1h-1z" fill="#4D90BA" />
  <path d="M843 1241h1v1h-1z" fill="#4D90BA" />
  <path d="M864 1272h1v1h-1z" fill="#4D90BA" />
  <path d="M950 1284h2v1h-2z" fill="#4D90BA" />
  <path d="M953 1284h1v1h-1z" fill="#4D90BA" />
  <path d="M811 1334h1v1h-1z" fill="#4D90BA" />
  <path d="M1266 1394h1v1h-1z" fill="#4D90BA" />
  <path d="M1270 1407h1v1h-1z" fill="#4D90BA" />
  <path d="M772 1439h1v1h-1z" fill="#4D90BA" />
  <path d="M731 1623h1v1h-1z" fill="#4D90BA" />
  <path d="M725 1668h1v1h-1z" fill="#4D90BA" />
</svg>
