<svg xmlns="http://www.w3.org/2000/svg" width="2048" height="2048" viewBox="0 0 2048 2048">
  <path d="M1304 0h1v1h-1z" fill="#FEFFF9" />
  <path d="M1645 0h1v1h-1z" fill="#FEFFF9" />
  <path d="M611 6h1v1h-1z" fill="#FEFFF9" />
  <path d="M1192 31h2v1h-2z" fill="#FEFFF9" />
  <path d="M591 47h1v1h-1z" fill="#FEFFF9" />
  <path d="M2008 56h1v1h-1z" fill="#FEFFF9" />
  <path d="M1931 377h1v1h-1z" fill="#FEFFF9" />
  <path d="M1528 447h1v1h-1z" fill="#FEFFF9" />
  <path d="M3 451h1v1h-1z" fill="#FEFFF9" />
  <path d="M0 560h1v1h-1z" fill="#FEFFF9" />
  <path d="M521 675h1v1h-1z" fill="#FEFFF9" />
  <path d="M0 797h1v1h-1z" fill="#FEFFF9" />
  <path d="M1580 825h1v1h-1z" fill="#FEFFF9" />
  <path d="M1561 847h1v1h-1z" fill="#FEFFF9" />
  <path d="M416 1067h1v1h-1z" fill="#FEFFF9" />
  <path d="M107 1119h1v1h-1z" fill="#FEFFF9" />
  <path d="M493 1126h1v1h-1z" fill="#FEFFF9" />
  <path d="M1449 1141h1v1h-1z" fill="#FEFFF9" />
  <path d="M1449 1142h1v1h-1z" fill="#FEFFF9" />
  <path d="M1531 1161h1v1h-1z" fill="#FEFFF9" />
  <path d="M1530 1162h2v1h-2z" fill="#FEFFF9" />
  <path d="M1461 1193h1v1h-1z" fill="#FEFFF9" />
  <path d="M1625 1198h1v1h-1z" fill="#FEFFF9" />
  <path d="M1385 1204h1v1h-1z" fill="#FEFFF9" />
  <path d="M1373 1217h1v1h-1z" fill="#FEFFF9" />
  <path d="M1261 1279h1v1h-1z" fill="#FEFFF9" />
  <path d="M1253 1283h1v1h-1z" fill="#FEFFF9" />
  <path d="M1253 1284h1v1h-1z" fill="#FEFFF9" />
  <path d="M1511 1299h1v1h-1z" fill="#FEFFF9" />
  <path d="M61 1304h1v1h-1z" fill="#FEFFF9" />
  <path d="M1666 1322h3v1h-3z" fill="#FEFFF9" />
  <path d="M1667 1323h1v1h-1z" fill="#FEFFF9" />
  <path d="M1500 1324h1v1h-1z" fill="#FEFFF9" />
  <path d="M2047 1358h1v1h-1z" fill="#FEFFF9" />
  <path d="M2047 1359h1v1h-1z" fill="#FEFFF9" />
  <path d="M1331 1432h1v1h-1z" fill="#FEFFF9" />
  <path d="M0 1440h1v1h-1z" fill="#FEFFF9" />
  <path d="M165 1444h1v1h-1z" fill="#FEFFF9" />
  <path d="M137 1495h1v1h-1z" fill="#FEFFF9" />
  <path d="M0 1505h1v1h-1z" fill="#FEFFF9" />
  <path d="M1612 1506h1v1h-1z" fill="#FEFFF9" />
  <path d="M0 1635h1v1h-1z" fill="#FEFFF9" />
  <path d="M1269 1796h1v1h-1z" fill="#FEFFF9" />
  <path d="M390 1797h1v1h-1z" fill="#FEFFF9" />
  <path d="M1803 1890h2v1h-2z" fill="#FEFFF9" />
  <path d="M277 1904h1v1h-1z" fill="#FEFFF9" />
  <path d="M125 1939h1v1h-1z" fill="#FEFFF9" />
  <path d="M75 1957h1v1h-1z" fill="#FEFFF9" />
  <path d="M159 1959h1v1h-1z" fill="#FEFFF9" />
  <path d="M2027 1967h1v1h-1z" fill="#FEFFF9" />
  <path d="M1181 2047h1v1h-1z" fill="#FEFFF9" />
</svg>
