<svg xmlns="http://www.w3.org/2000/svg" width="2048" height="2048" viewBox="0 0 2048 2048">
  <path d="M215 165h1v1h-1z" fill="#1A1114" />
  <path d="M226 165h1v1h-1z" fill="#1A1114" />
  <path d="M232 165h1v1h-1z" fill="#1A1114" />
  <path d="M235 165h1v1h-1z" fill="#1A1114" />
  <path d="M262 165h1v1h-1z" fill="#1A1114" />
  <path d="M274 165h1v1h-1z" fill="#1A1114" />
  <path d="M280 165h1v1h-1z" fill="#1A1114" />
  <path d="M291 165h1v1h-1z" fill="#1A1114" />
  <path d="M306 165h1v1h-1z" fill="#1A1114" />
  <path d="M321 165h1v1h-1z" fill="#1A1114" />
  <path d="M325 165h1v1h-1z" fill="#1A1114" />
  <path d="M330 165h1v1h-1z" fill="#1A1114" />
  <path d="M333 165h1v1h-1z" fill="#1A1114" />
  <path d="M583 165h1v1h-1z" fill="#1A1114" />
  <path d="M206 175h1v1h-1z" fill="#1A1114" />
  <path d="M206 188h1v1h-1z" fill="#1A1114" />
  <path d="M206 207h1v1h-1z" fill="#1A1114" />
  <path d="M612 210h1v1h-1z" fill="#1A1114" />
  <path d="M1386 247h1v1h-1z" fill="#1A1114" />
  <path d="M226 266h1v1h-1z" fill="#1A1114" />
  <path d="M1169 267h1v1h-1z" fill="#1A1114" />
  <path d="M1353 269h1v1h-1z" fill="#1A1114" />
  <path d="M592 279h1v1h-1z" fill="#1A1114" />
  <path d="M969 288h1v1h-1z" fill="#1A1114" />
  <path d="M979 288h3v1h-3z" fill="#1A1114" />
  <path d="M984 288h1v1h-1z" fill="#1A1114" />
  <path d="M988 288h1v1h-1z" fill="#1A1114" />
  <path d="M1028 288h1v1h-1z" fill="#1A1114" />
  <path d="M1250 288h2v1h-2z" fill="#1A1114" />
  <path d="M1261 288h1v1h-1z" fill="#1A1114" />
  <path d="M1353 288h1v1h-1z" fill="#1A1114" />
  <path d="M1477 288h1v1h-1z" fill="#1A1114" />
  <path d="M1730 288h1v1h-1z" fill="#1A1114" />
  <path d="M1733 288h1v1h-1z" fill="#1A1114" />
  <path d="M1805 288h1v1h-1z" fill="#1A1114" />
  <path d="M1807 288h1v1h-1z" fill="#1A1114" />
  <path d="M1819 288h2v1h-2z" fill="#1A1114" />
  <path d="M1832 288h1v1h-1z" fill="#1A1114" />
  <path d="M1893 288h1v1h-1z" fill="#1A1114" />
  <path d="M925 289h1v1h-1z" fill="#1A1114" />
  <path d="M1353 289h1v1h-1z" fill="#1A1114" />
  <path d="M1353 317h1v1h-1z" fill="#1A1114" />
  <path d="M1353 319h1v1h-1z" fill="#1A1114" />
  <path d="M1353 320h1v1h-1z" fill="#1A1114" />
  <path d="M1353 325h1v1h-1z" fill="#1A1114" />
  <path d="M1353 327h1v1h-1z" fill="#1A1114" />
  <path d="M1353 332h1v1h-1z" fill="#1A1114" />
  <path d="M1353 350h1v1h-1z" fill="#1A1114" />
  <path d="M718 361h1v1h-1z" fill="#1A1114" />
  <path d="M1353 361h1v1h-1z" fill="#1A1114" />
  <path d="M1353 362h1v1h-1z" fill="#1A1114" />
  <path d="M1353 363h1v1h-1z" fill="#1A1114" />
  <path d="M953 427h1v1h-1z" fill="#1A1114" />
  <path d="M1264 427h1v1h-1z" fill="#1A1114" />
  <path d="M1327 452h1v1h-1z" fill="#1A1114" />
  <path d="M878 462h1v1h-1z" fill="#1A1114" />
  <path d="M1312 465h1v1h-1z" fill="#1A1114" />
  <path d="M1542 472h1v1h-1z" fill="#1A1114" />
  <path d="M985 534h1v1h-1z" fill="#1A1114" />
  <path d="M987 534h1v1h-1z" fill="#1A1114" />
  <path d="M989 534h1v1h-1z" fill="#1A1114" />
  <path d="M1231 537h1v1h-1z" fill="#1A1114" />
  <path d="M665 616h1v1h-1z" fill="#1A1114" />
  <path d="M1534 676h1v1h-1z" fill="#1A1114" />
  <path d="M1534 677h1v1h-1z" fill="#1A1114" />
  <path d="M1534 711h1v1h-1z" fill="#1A1114" />
  <path d="M1534 720h1v1h-1z" fill="#1A1114" />
  <path d="M1534 721h1v1h-1z" fill="#1A1114" />
  <path d="M1534 739h1v1h-1z" fill="#1A1114" />
  <path d="M212 861h1v1h-1z" fill="#1A1114" />
  <path d="M421 861h1v1h-1z" fill="#1A1114" />
  <path d="M1595 893h1v1h-1z" fill="#1A1114" />
  <path d="M1595 921h1v1h-1z" fill="#1A1114" />
  <path d="M1595 930h1v1h-1z" fill="#1A1114" />
  <path d="M42 1087h1v1h-1z" fill="#1A1114" />
  <path d="M42 1093h1v1h-1z" fill="#1A1114" />
</svg>
