<svg xmlns="http://www.w3.org/2000/svg" width="2048" height="2048" viewBox="0 0 2048 2048">
  <path d="M240 162h1v1h-1z" fill="#5A6F84" />
  <path d="M356 162h1v1h-1z" fill="#5A6F84" />
  <path d="M459 162h1v1h-1z" fill="#5A6F84" />
  <path d="M465 162h1v1h-1z" fill="#5A6F84" />
  <path d="M599 162h1v1h-1z" fill="#5A6F84" />
  <path d="M611 162h1v1h-1z" fill="#5A6F84" />
  <path d="M1396 243h1v1h-1z" fill="#5A6F84" />
  <path d="M1660 243h1v1h-1z" fill="#5A6F84" />
  <path d="M1876 284h1v1h-1z" fill="#5A6F84" />
  <path d="M1885 284h1v1h-1z" fill="#5A6F84" />
  <path d="M366 296h1v1h-1z" fill="#5A6F84" />
  <path d="M371 309h1v1h-1z" fill="#5A6F84" />
  <path d="M1726 350h1v1h-1z" fill="#5A6F84" />
  <path d="M694 370h1v1h-1z" fill="#5A6F84" />
  <path d="M1722 414h1v1h-1z" fill="#5A6F84" />
  <path d="M985 421h1v1h-1z" fill="#5A6F84" />
  <path d="M916 431h2v1h-2z" fill="#5A6F84" />
  <path d="M1073 431h1v1h-1z" fill="#5A6F84" />
  <path d="M1139 431h1v1h-1z" fill="#5A6F84" />
  <path d="M1153 431h1v1h-1z" fill="#5A6F84" />
  <path d="M1196 432h1v1h-1z" fill="#5A6F84" />
  <path d="M1304 468h1v1h-1z" fill="#5A6F84" />
  <path d="M1244 529h1v1h-1z" fill="#5A6F84" />
  <path d="M1172 550h1v1h-1z" fill="#5A6F84" />
  <path d="M693 568h1v1h-1z" fill="#5A6F84" />
  <path d="M415 858h1v1h-1z" fill="#5A6F84" />
  <path d="M59 868h1v1h-1z" fill="#5A6F84" />
  <path d="M366 961h1v1h-1z" fill="#5A6F84" />
  <path d="M366 975h1v1h-1z" fill="#5A6F84" />
  <path d="M330 997h1v1h-1z" fill="#5A6F84" />
  <path d="M366 1016h1v1h-1z" fill="#5A6F84" />
  <path d="M1706 1186h1v1h-1z" fill="#5A6F84" />
</svg>
