<svg xmlns="http://www.w3.org/2000/svg" width="2048" height="2048" viewBox="0 0 2048 2048">
  <path d="M1443 269h1v1h-1z" fill="#1E0000" />
  <path d="M1402 278h1v1h-1z" fill="#1E0000" />
  <path d="M1398 279h1v1h-1z" fill="#1E0000" />
  <path d="M1391 281h1v1h-1z" fill="#1E0000" />
  <path d="M1371 287h1v1h-1z" fill="#1E0000" />
  <path d="M1458 287h1v1h-1z" fill="#1E0000" />
  <path d="M497 293h1v1h-1z" fill="#1E0000" />
  <path d="M502 295h1v1h-1z" fill="#1E0000" />
  <path d="M505 296h1v1h-1z" fill="#1E0000" />
  <path d="M1460 298h1v1h-1z" fill="#1E0000" />
  <path d="M513 299h1v1h-1z" fill="#1E0000" />
  <path d="M1462 314h1v1h-1z" fill="#1E0000" />
  <path d="M552 317h1v1h-1z" fill="#1E0000" />
  <path d="M1463 328h1v1h-1z" fill="#1E0000" />
  <path d="M1269 331h1v1h-1z" fill="#1E0000" />
  <path d="M1464 338h1v1h-1z" fill="#1E0000" />
  <path d="M597 341h1v1h-1z" fill="#1E0000" />
  <path d="M602 344h1v1h-1z" fill="#1E0000" />
  <path d="M385 349h1v1h-1z" fill="#1E0000" />
  <path d="M1238 350h1v1h-1z" fill="#1E0000" />
  <path d="M467 355h1v1h-1z" fill="#1E0000" />
  <path d="M622 357h1v1h-1z" fill="#1E0000" />
  <path d="M483 358h1v1h-1z" fill="#1E0000" />
  <path d="M1359 360h1v1h-1z" fill="#1E0000" />
  <path d="M1355 361h1v1h-1z" fill="#1E0000" />
  <path d="M1348 363h1v1h-1z" fill="#1E0000" />
  <path d="M511 366h1v1h-1z" fill="#1E0000" />
  <path d="M1338 366h1v1h-1z" fill="#1E0000" />
  <path d="M384 376h1v1h-1z" fill="#1E0000" />
  <path d="M384 377h1v1h-1z" fill="#1E0000" />
  <path d="M384 378h1v1h-1z" fill="#1E0000" />
  <path d="M1192 380h1v1h-1z" fill="#1E0000" />
  <path d="M894 382h1v1h-1z" fill="#1E0000" />
  <path d="M899 382h2v1h-2z" fill="#1E0000" />
  <path d="M949 382h1v1h-1z" fill="#1E0000" />
  <path d="M555 384h1v1h-1z" fill="#1E0000" />
  <path d="M980 384h1v1h-1z" fill="#1E0000" />
  <path d="M858 385h1v1h-1z" fill="#1E0000" />
  <path d="M851 386h1v1h-1z" fill="#1E0000" />
  <path d="M998 386h1v1h-1z" fill="#1E0000" />
  <path d="M1400 386h1v1h-1z" fill="#1E0000" />
  <path d="M843 387h1v1h-1z" fill="#1E0000" />
  <path d="M1007 387h1v1h-1z" fill="#1E0000" />
  <path d="M1015 388h1v1h-1z" fill="#1E0000" />
  <path d="M1021 389h1v1h-1z" fill="#1E0000" />
  <path d="M670 390h1v1h-1z" fill="#1E0000" />
  <path d="M813 391h1v1h-1z" fill="#1E0000" />
  <path d="M800 394h1v1h-1z" fill="#1E0000" />
  <path d="M1048 394h1v1h-1z" fill="#1E0000" />
  <path d="M1465 394h1v1h-1z" fill="#1E0000" />
  <path d="M1273 395h1v1h-1z" fill="#1E0000" />
  <path d="M1465 395h1v1h-1z" fill="#1E0000" />
  <path d="M1465 396h1v1h-1z" fill="#1E0000" />
  <path d="M787 397h1v1h-1z" fill="#1E0000" />
  <path d="M783 398h1v1h-1z" fill="#1E0000" />
  <path d="M1465 399h1v1h-1z" fill="#1E0000" />
  <path d="M1401 403h1v1h-1z" fill="#1E0000" />
  <path d="M1088 404h1v1h-1z" fill="#1E0000" />
  <path d="M1401 406h1v1h-1z" fill="#1E0000" />
  <path d="M1100 407h1v1h-1z" fill="#1E0000" />
  <path d="M1161 408h1v1h-1z" fill="#1E0000" />
  <path d="M742 409h1v1h-1z" fill="#1E0000" />
  <path d="M1162 409h1v1h-1z" fill="#1E0000" />
  <path d="M601 410h1v1h-1z" fill="#1E0000" />
  <path d="M1172 414h1v1h-1z" fill="#1E0000" />
  <path d="M1177 416h1v1h-1z" fill="#1E0000" />
  <path d="M1181 418h1v1h-1z" fill="#1E0000" />
  <path d="M1148 425h1v1h-1z" fill="#1E0000" />
  <path d="M698 426h1v1h-1z" fill="#1E0000" />
  <path d="M1225 426h1v1h-1z" fill="#1E0000" />
  <path d="M648 428h1v1h-1z" fill="#1E0000" />
  <path d="M1401 428h1v1h-1z" fill="#1E0000" />
  <path d="M1401 429h1v1h-1z" fill="#1E0000" />
  <path d="M386 430h1v1h-1z" fill="#1E0000" />
  <path d="M688 430h1v1h-1z" fill="#1E0000" />
  <path d="M652 448h1v1h-1z" fill="#1E0000" />
  <path d="M1200 450h1v1h-1z" fill="#1E0000" />
  <path d="M389 451h1v1h-1z" fill="#1E0000" />
  <path d="M1209 455h1v1h-1z" fill="#1E0000" />
  <path d="M1459 462h1v1h-1z" fill="#1E0000" />
  <path d="M1459 463h1v1h-1z" fill="#1E0000" />
  <path d="M1397 474h1v1h-1z" fill="#1E0000" />
  <path d="M393 479h1v1h-1z" fill="#1E0000" />
  <path d="M393 480h1v1h-1z" fill="#1E0000" />
  <path d="M1252 482h1v1h-1z" fill="#1E0000" />
  <path d="M1454 493h1v1h-1z" fill="#1E0000" />
  <path d="M1454 494h1v1h-1z" fill="#1E0000" />
  <path d="M1394 495h1v1h-1z" fill="#1E0000" />
  <path d="M396 498h1v1h-1z" fill="#1E0000" />
  <path d="M1393 501h1v1h-1z" fill="#1E0000" />
  <path d="M1393 502h1v1h-1z" fill="#1E0000" />
  <path d="M1451 507h1v1h-1z" fill="#1E0000" />
  <path d="M1391 512h1v1h-1z" fill="#1E0000" />
  <path d="M1449 517h1v1h-1z" fill="#1E0000" />
  <path d="M1298 518h1v1h-1z" fill="#1E0000" />
  <path d="M546 522h1v1h-1z" fill="#1E0000" />
  <path d="M461 524h1v1h-1z" fill="#1E0000" />
  <path d="M544 524h1v1h-1z" fill="#1E0000" />
  <path d="M1447 527h1v1h-1z" fill="#1E0000" />
  <path d="M404 532h1v1h-1z" fill="#1E0000" />
  <path d="M464 534h1v1h-1z" fill="#1E0000" />
  <path d="M1316 534h1v1h-1z" fill="#1E0000" />
  <path d="M1317 535h1v1h-1z" fill="#1E0000" />
  <path d="M1331 549h1v1h-1z" fill="#1E0000" />
  <path d="M1379 556h1v1h-1z" fill="#1E0000" />
  <path d="M1341 560h1v1h-1z" fill="#1E0000" />
  <path d="M1436 564h1v1h-1z" fill="#1E0000" />
  <path d="M473 565h1v1h-1z" fill="#1E0000" />
  <path d="M1376 568h1v1h-1z" fill="#1E0000" />
  <path d="M472 572h1v1h-1z" fill="#1E0000" />
  <path d="M497 573h1v1h-1z" fill="#1E0000" />
  <path d="M419 582h1v1h-1z" fill="#1E0000" />
  <path d="M463 584h1v1h-1z" fill="#1E0000" />
  <path d="M1365 588h1v1h-1z" fill="#1E0000" />
  <path d="M482 591h1v1h-1z" fill="#1E0000" />
  <path d="M431 615h1v1h-1z" fill="#1E0000" />
  <path d="M1385 616h1v1h-1z" fill="#1E0000" />
  <path d="M1397 635h1v1h-1z" fill="#1E0000" />
  <path d="M1401 642h1v1h-1z" fill="#1E0000" />
  <path d="M443 650h1v1h-1z" fill="#1E0000" />
  <path d="M440 655h1v1h-1z" fill="#1E0000" />
  <path d="M1410 657h1v1h-1z" fill="#1E0000" />
  <path d="M438 658h1v1h-1z" fill="#1E0000" />
  <path d="M1414 664h1v1h-1z" fill="#1E0000" />
  <path d="M419 698h1v1h-1z" fill="#1E0000" />
  <path d="M410 720h1v1h-1z" fill="#1E0000" />
  <path d="M1447 744h1v1h-1z" fill="#1E0000" />
  <path d="M399 753h1v1h-1z" fill="#1E0000" />
  <path d="M1451 759h1v1h-1z" fill="#1E0000" />
  <path d="M393 776h1v1h-1z" fill="#1E0000" />
  <path d="M1163 780h1v1h-1z" fill="#1E0000" />
  <path d="M1175 781h1v1h-1z" fill="#1E0000" />
  <path d="M1457 782h1v1h-1z" fill="#1E0000" />
  <path d="M703 783h1v1h-1z" fill="#1E0000" />
  <path d="M1137 787h1v1h-1z" fill="#1E0000" />
  <path d="M713 788h1v1h-1z" fill="#1E0000" />
  <path d="M717 791h1v1h-1z" fill="#1E0000" />
  <path d="M1127 795h1v1h-1z" fill="#1E0000" />
  <path d="M1125 797h1v1h-1z" fill="#1E0000" />
  <path d="M1202 797h1v1h-1z" fill="#1E0000" />
  <path d="M1123 799h1v1h-1z" fill="#1E0000" />
  <path d="M1212 809h1v1h-1z" fill="#1E0000" />
  <path d="M1215 815h1v1h-1z" fill="#1E0000" />
  <path d="M634 816h1v1h-1z" fill="#1E0000" />
  <path d="M1217 822h1v1h-1z" fill="#1E0000" />
  <path d="M632 824h1v1h-1z" fill="#1E0000" />
  <path d="M384 830h1v1h-1z" fill="#1E0000" />
  <path d="M631 835h1v1h-1z" fill="#1E0000" />
  <path d="M631 840h1v1h-1z" fill="#1E0000" />
  <path d="M1467 845h1v1h-1z" fill="#1E0000" />
  <path d="M632 847h1v1h-1z" fill="#1E0000" />
  <path d="M382 851h1v1h-1z" fill="#1E0000" />
  <path d="M634 854h1v1h-1z" fill="#1E0000" />
  <path d="M1468 854h1v1h-1z" fill="#1E0000" />
  <path d="M727 869h1v1h-1z" fill="#1E0000" />
  <path d="M662 884h1v1h-1z" fill="#1E0000" />
  <path d="M704 886h1v1h-1z" fill="#1E0000" />
  <path d="M699 887h1v1h-1z" fill="#1E0000" />
  <path d="M1179 887h1v1h-1z" fill="#1E0000" />
  <path d="M688 889h1v1h-1z" fill="#1E0000" />
  <path d="M382 920h1v1h-1z" fill="#1E0000" />
  <path d="M382 921h1v1h-1z" fill="#1E0000" />
  <path d="M384 939h1v1h-1z" fill="#1E0000" />
  <path d="M385 943h1v1h-1z" fill="#1E0000" />
  <path d="M890 960h1v1h-1z" fill="#1E0000" />
  <path d="M967 963h1v1h-1z" fill="#1E0000" />
  <path d="M969 964h1v1h-1z" fill="#1E0000" />
  <path d="M1391 1276h1v1h-1z" fill="#1E0000" />
  <path d="M1380 1282h1v1h-1z" fill="#1E0000" />
  <path d="M1375 1285h1v1h-1z" fill="#1E0000" />
  <path d="M1365 1291h1v1h-1z" fill="#1E0000" />
  <path d="M1340 1309h1v1h-1z" fill="#1E0000" />
  <path d="M1165 1320h1v1h-1z" fill="#1E0000" />
  <path d="M1162 1321h1v1h-1z" fill="#1E0000" />
  <path d="M1184 1324h1v1h-1z" fill="#1E0000" />
  <path d="M1140 1328h1v1h-1z" fill="#1E0000" />
  <path d="M1127 1332h1v1h-1z" fill="#1E0000" />
  <path d="M1121 1334h1v1h-1z" fill="#1E0000" />
  <path d="M1316 1334h1v1h-1z" fill="#1E0000" />
  <path d="M763 1343h1v1h-1z" fill="#1E0000" />
  <path d="M686 1349h1v1h-1z" fill="#1E0000" />
  <path d="M1299 1356h1v1h-1z" fill="#1E0000" />
  <path d="M682 1359h1v1h-1z" fill="#1E0000" />
  <path d="M678 1368h1v1h-1z" fill="#1E0000" />
  <path d="M1203 1371h1v1h-1z" fill="#1E0000" />
  <path d="M1206 1379h1v1h-1z" fill="#1E0000" />
  <path d="M1284 1380h1v1h-1z" fill="#1E0000" />
  <path d="M1207 1382h1v1h-1z" fill="#1E0000" />
  <path d="M1283 1382h1v1h-1z" fill="#1E0000" />
  <path d="M1209 1387h1v1h-1z" fill="#1E0000" />
  <path d="M1279 1391h1v1h-1z" fill="#1E0000" />
  <path d="M1275 1400h1v1h-1z" fill="#1E0000" />
  <path d="M1214 1402h1v1h-1z" fill="#1E0000" />
  <path d="M1218 1412h1v1h-1z" fill="#1E0000" />
  <path d="M659 1421h1v1h-1z" fill="#1E0000" />
  <path d="M1267 1421h1v1h-1z" fill="#1E0000" />
  <path d="M1227 1438h1v1h-1z" fill="#1E0000" />
  <path d="M1261 1440h1v1h-1z" fill="#1E0000" />
  <path d="M1258 1453h1v1h-1z" fill="#1E0000" />
  <path d="M1232 1454h1v1h-1z" fill="#1E0000" />
  <path d="M644 1466h1v1h-1z" fill="#1E0000" />
  <path d="M1238 1472h1v1h-1z" fill="#1E0000" />
  <path d="M1239 1475h1v1h-1z" fill="#1E0000" />
  <path d="M1635 1496h1v1h-1z" fill="#1E0000" />
  <path d="M1633 1500h1v1h-1z" fill="#1E0000" />
  <path d="M1632 1502h1v1h-1z" fill="#1E0000" />
  <path d="M1629 1507h1v1h-1z" fill="#1E0000" />
  <path d="M1275 1535h1v1h-1z" fill="#1E0000" />
  <path d="M623 1542h1v1h-1z" fill="#1E0000" />
  <path d="M1279 1554h1v1h-1z" fill="#1E0000" />
  <path d="M1281 1566h1v1h-1z" fill="#1E0000" />
  <path d="M618 1570h1v1h-1z" fill="#1E0000" />
  <path d="M1282 1574h1v1h-1z" fill="#1E0000" />
  <path d="M754 1577h1v1h-1z" fill="#1E0000" />
  <path d="M735 1589h1v1h-1z" fill="#1E0000" />
  <path d="M1125 1592h1v1h-1z" fill="#1E0000" />
  <path d="M755 1595h1v1h-1z" fill="#1E0000" />
  <path d="M1283 1597h1v1h-1z" fill="#1E0000" />
  <path d="M1283 1606h1v1h-1z" fill="#1E0000" />
  <path d="M736 1607h1v1h-1z" fill="#1E0000" />
  <path d="M1283 1607h1v1h-1z" fill="#1E0000" />
  <path d="M736 1608h1v1h-1z" fill="#1E0000" />
  <path d="M1283 1609h1v1h-1z" fill="#1E0000" />
  <path d="M617 1613h1v1h-1z" fill="#1E0000" />
  <path d="M618 1620h1v1h-1z" fill="#1E0000" />
  <path d="M1527 1620h1v1h-1z" fill="#1E0000" />
  <path d="M1122 1625h1v1h-1z" fill="#1E0000" />
  <path d="M1281 1625h1v1h-1z" fill="#1E0000" />
  <path d="M619 1626h1v1h-1z" fill="#1E0000" />
  <path d="M1122 1626h1v1h-1z" fill="#1E0000" />
  <path d="M1142 1626h1v1h-1z" fill="#1E0000" />
  <path d="M998 1628h1v1h-1z" fill="#1E0000" />
  <path d="M739 1632h1v1h-1z" fill="#1E0000" />
  <path d="M1141 1634h1v1h-1z" fill="#1E0000" />
  <path d="M875 1635h1v1h-1z" fill="#1E0000" />
  <path d="M985 1644h1v1h-1z" fill="#1E0000" />
  <path d="M1139 1649h1v1h-1z" fill="#1E0000" />
  <path d="M1460 1656h1v1h-1z" fill="#1E0000" />
  <path d="M1003 1660h1v1h-1z" fill="#1E0000" />
  <path d="M1003 1661h1v1h-1z" fill="#1E0000" />
  <path d="M1137 1661h1v1h-1z" fill="#1E0000" />
  <path d="M1117 1663h1v1h-1z" fill="#1E0000" />
  <path d="M897 1666h1v1h-1z" fill="#1E0000" />
  <path d="M1136 1666h1v1h-1z" fill="#1E0000" />
  <path d="M897 1667h1v1h-1z" fill="#1E0000" />
  <path d="M1416 1670h1v1h-1z" fill="#1E0000" />
  <path d="M878 1673h1v1h-1z" fill="#1E0000" />
  <path d="M1267 1673h1v1h-1z" fill="#1E0000" />
  <path d="M1281 1676h1v1h-1z" fill="#1E0000" />
  <path d="M1381 1676h1v1h-1z" fill="#1E0000" />
  <path d="M1372 1677h1v1h-1z" fill="#1E0000" />
  <path d="M1297 1678h1v1h-1z" fill="#1E0000" />
  <path d="M646 1682h1v1h-1z" fill="#1E0000" />
  <path d="M898 1682h1v1h-1z" fill="#1E0000" />
  <path d="M898 1683h1v1h-1z" fill="#1E0000" />
  <path d="M981 1686h1v1h-1z" fill="#1E0000" />
  <path d="M748 1688h1v1h-1z" fill="#1E0000" />
  <path d="M1001 1689h1v1h-1z" fill="#1E0000" />
  <path d="M1111 1690h1v1h-1z" fill="#1E0000" />
  <path d="M1219 1697h1v1h-1z" fill="#1E0000" />
  <path d="M750 1699h1v1h-1z" fill="#1E0000" />
  <path d="M666 1701h1v1h-1z" fill="#1E0000" />
  <path d="M670 1704h1v1h-1z" fill="#1E0000" />
  <path d="M1127 1708h1v1h-1z" fill="#1E0000" />
  <path d="M1201 1709h1v1h-1z" fill="#1E0000" />
  <path d="M1105 1713h1v1h-1z" fill="#1E0000" />
  <path d="M1001 1715h1v1h-1z" fill="#1E0000" />
  <path d="M1125 1715h1v1h-1z" fill="#1E0000" />
  <path d="M691 1716h1v1h-1z" fill="#1E0000" />
  <path d="M1001 1718h1v1h-1z" fill="#1E0000" />
  <path d="M756 1719h1v1h-1z" fill="#1E0000" />
  <path d="M756 1720h1v1h-1z" fill="#1E0000" />
  <path d="M898 1720h1v1h-1z" fill="#1E0000" />
  <path d="M982 1721h1v1h-1z" fill="#1E0000" />
  <path d="M929 1726h1v1h-1z" fill="#1E0000" />
  <path d="M952 1726h1v1h-1z" fill="#1E0000" />
  <path d="M954 1726h2v1h-2z" fill="#1E0000" />
  <path d="M878 1727h1v1h-1z" fill="#1E0000" />
  <path d="M1002 1729h1v1h-1z" fill="#1E0000" />
  <path d="M876 1739h1v1h-1z" fill="#1E0000" />
  <path d="M1095 1743h1v1h-1z" fill="#1E0000" />
  <path d="M786 1746h1v1h-1z" fill="#1E0000" />
  <path d="M788 1750h1v1h-1z" fill="#1E0000" />
  <path d="M793 1759h1v1h-1z" fill="#1E0000" />
  <path d="M1012 1759h1v1h-1z" fill="#1E0000" />
  <path d="M1014 1762h1v1h-1z" fill="#1E0000" />
  <path d="M1084 1763h1v1h-1z" fill="#1E0000" />
  <path d="M1017 1766h1v1h-1z" fill="#1E0000" />
  <path d="M1079 1769h1v1h-1z" fill="#1E0000" />
  <path d="M1077 1771h1v1h-1z" fill="#1E0000" />
  <path d="M1025 1774h1v1h-1z" fill="#1E0000" />
</svg>
