<svg xmlns="http://www.w3.org/2000/svg" width="2048" height="2048" viewBox="0 0 2048 2048">
  <path d="M1433 271h1v1h-1z" fill="#250000" />
  <path d="M1422 273h1v1h-1z" fill="#250000" />
  <path d="M442 277h1v1h-1z" fill="#250000" />
  <path d="M1406 277h1v1h-1z" fill="#250000" />
  <path d="M446 278h1v1h-1z" fill="#250000" />
  <path d="M1456 280h1v1h-1z" fill="#250000" />
  <path d="M1375 286h1v1h-1z" fill="#250000" />
  <path d="M1369 288h1v1h-1z" fill="#250000" />
  <path d="M1362 290h1v1h-1z" fill="#250000" />
  <path d="M521 303h1v1h-1z" fill="#250000" />
  <path d="M1322 306h1v1h-1z" fill="#250000" />
  <path d="M547 315h1v1h-1z" fill="#250000" />
  <path d="M1288 322h1v1h-1z" fill="#250000" />
  <path d="M1463 331h1v1h-1z" fill="#250000" />
  <path d="M386 338h1v1h-1z" fill="#250000" />
  <path d="M386 340h1v1h-1z" fill="#250000" />
  <path d="M603 345h1v1h-1z" fill="#250000" />
  <path d="M1237 351h1v1h-1z" fill="#250000" />
  <path d="M617 354h1v1h-1z" fill="#250000" />
  <path d="M1371 357h1v1h-1z" fill="#250000" />
  <path d="M1365 358h1v1h-1z" fill="#250000" />
  <path d="M1397 363h1v1h-1z" fill="#250000" />
  <path d="M506 364h1v1h-1z" fill="#250000" />
  <path d="M636 366h1v1h-1z" fill="#250000" />
  <path d="M1332 368h1v1h-1z" fill="#250000" />
  <path d="M1198 376h1v1h-1z" fill="#250000" />
  <path d="M450 382h1v1h-1z" fill="#250000" />
  <path d="M904 382h1v1h-1z" fill="#250000" />
  <path d="M907 382h1v1h-1z" fill="#250000" />
  <path d="M940 382h2v1h-2z" fill="#250000" />
  <path d="M944 382h2v1h-2z" fill="#250000" />
  <path d="M1400 383h1v1h-1z" fill="#250000" />
  <path d="M977 384h1v1h-1z" fill="#250000" />
  <path d="M1465 384h1v1h-1z" fill="#250000" />
  <path d="M861 385h1v1h-1z" fill="#250000" />
  <path d="M995 386h1v1h-1z" fill="#250000" />
  <path d="M1184 387h1v1h-1z" fill="#250000" />
  <path d="M1012 388h1v1h-1z" fill="#250000" />
  <path d="M1181 389h1v1h-1z" fill="#250000" />
  <path d="M572 392h1v1h-1z" fill="#250000" />
  <path d="M811 392h1v1h-1z" fill="#250000" />
  <path d="M806 393h1v1h-1z" fill="#250000" />
  <path d="M676 395h1v1h-1z" fill="#250000" />
  <path d="M793 396h1v1h-1z" fill="#250000" />
  <path d="M1055 396h1v1h-1z" fill="#250000" />
  <path d="M1401 396h1v1h-1z" fill="#250000" />
  <path d="M1267 398h1v1h-1z" fill="#250000" />
  <path d="M1067 399h1v1h-1z" fill="#250000" />
  <path d="M448 400h1v1h-1z" fill="#250000" />
  <path d="M1071 400h1v1h-1z" fill="#250000" />
  <path d="M448 401h1v1h-1z" fill="#250000" />
  <path d="M448 402h1v1h-1z" fill="#250000" />
  <path d="M769 402h1v1h-1z" fill="#250000" />
  <path d="M448 403h1v1h-1z" fill="#250000" />
  <path d="M765 403h1v1h-1z" fill="#250000" />
  <path d="M1259 403h1v1h-1z" fill="#250000" />
  <path d="M1121 415h1v1h-1z" fill="#250000" />
  <path d="M722 417h1v1h-1z" fill="#250000" />
  <path d="M717 419h1v1h-1z" fill="#250000" />
  <path d="M1134 420h1v1h-1z" fill="#250000" />
  <path d="M1137 421h1v1h-1z" fill="#250000" />
  <path d="M621 423h1v1h-1z" fill="#250000" />
  <path d="M655 424h1v1h-1z" fill="#250000" />
  <path d="M448 425h1v1h-1z" fill="#250000" />
  <path d="M448 432h1v1h-1z" fill="#250000" />
  <path d="M448 434h1v1h-1z" fill="#250000" />
  <path d="M387 435h1v1h-1z" fill="#250000" />
  <path d="M1401 438h1v1h-1z" fill="#250000" />
  <path d="M654 447h1v1h-1z" fill="#250000" />
  <path d="M1194 447h1v1h-1z" fill="#250000" />
  <path d="M635 458h1v1h-1z" fill="#250000" />
  <path d="M1458 469h1v1h-1z" fill="#250000" />
  <path d="M393 476h1v1h-1z" fill="#250000" />
  <path d="M606 476h1v1h-1z" fill="#250000" />
  <path d="M1397 477h1v1h-1z" fill="#250000" />
  <path d="M1250 481h1v1h-1z" fill="#250000" />
  <path d="M394 483h1v1h-1z" fill="#250000" />
  <path d="M593 485h1v1h-1z" fill="#250000" />
  <path d="M1257 486h1v1h-1z" fill="#250000" />
  <path d="M1455 486h1v1h-1z" fill="#250000" />
  <path d="M586 490h1v1h-1z" fill="#250000" />
  <path d="M454 491h1v1h-1z" fill="#250000" />
  <path d="M583 492h1v1h-1z" fill="#250000" />
  <path d="M1452 501h1v1h-1z" fill="#250000" />
  <path d="M1392 509h1v1h-1z" fill="#250000" />
  <path d="M1450 511h1v1h-1z" fill="#250000" />
  <path d="M458 512h1v1h-1z" fill="#250000" />
  <path d="M1294 515h1v1h-1z" fill="#250000" />
  <path d="M1387 529h1v1h-1z" fill="#250000" />
  <path d="M1321 539h1v1h-1z" fill="#250000" />
  <path d="M409 548h1v1h-1z" fill="#250000" />
  <path d="M1380 554h1v1h-1z" fill="#250000" />
  <path d="M470 556h1v1h-1z" fill="#250000" />
  <path d="M413 561h1v1h-1z" fill="#250000" />
  <path d="M1436 563h1v1h-1z" fill="#250000" />
  <path d="M1345 565h1v1h-1z" fill="#250000" />
  <path d="M473 566h1v1h-1z" fill="#250000" />
  <path d="M1433 572h1v1h-1z" fill="#250000" />
  <path d="M468 577h1v1h-1z" fill="#250000" />
  <path d="M1356 578h1v1h-1z" fill="#250000" />
  <path d="M477 598h1v1h-1z" fill="#250000" />
  <path d="M469 609h1v1h-1z" fill="#250000" />
  <path d="M1393 629h1v1h-1z" fill="#250000" />
  <path d="M450 639h1v1h-1z" fill="#250000" />
  <path d="M1399 639h1v1h-1z" fill="#250000" />
  <path d="M1402 644h1v1h-1z" fill="#250000" />
  <path d="M1406 651h1v1h-1z" fill="#250000" />
  <path d="M1423 683h1v1h-1z" fill="#250000" />
  <path d="M425 685h1v1h-1z" fill="#250000" />
  <path d="M1429 697h1v1h-1z" fill="#250000" />
  <path d="M417 704h1v1h-1z" fill="#250000" />
  <path d="M415 709h1v1h-1z" fill="#250000" />
  <path d="M1452 764h1v1h-1z" fill="#250000" />
  <path d="M1453 769h1v1h-1z" fill="#250000" />
  <path d="M689 780h1v1h-1z" fill="#250000" />
  <path d="M698 781h1v1h-1z" fill="#250000" />
  <path d="M1176 781h1v1h-1z" fill="#250000" />
  <path d="M701 782h1v1h-1z" fill="#250000" />
  <path d="M1147 782h1v1h-1z" fill="#250000" />
  <path d="M666 783h1v1h-1z" fill="#250000" />
  <path d="M729 802h1v1h-1z" fill="#250000" />
  <path d="M1119 803h1v1h-1z" fill="#250000" />
  <path d="M1209 804h1v1h-1z" fill="#250000" />
  <path d="M1117 806h1v1h-1z" fill="#250000" />
  <path d="M735 811h1v1h-1z" fill="#250000" />
  <path d="M385 823h1v1h-1z" fill="#250000" />
  <path d="M1464 823h1v1h-1z" fill="#250000" />
  <path d="M384 833h1v1h-1z" fill="#250000" />
  <path d="M740 836h1v1h-1z" fill="#250000" />
  <path d="M740 837h1v1h-1z" fill="#250000" />
  <path d="M383 843h1v1h-1z" fill="#250000" />
  <path d="M383 844h1v1h-1z" fill="#250000" />
  <path d="M383 845h1v1h-1z" fill="#250000" />
  <path d="M632 848h1v1h-1z" fill="#250000" />
  <path d="M382 854h1v1h-1z" fill="#250000" />
  <path d="M382 855h1v1h-1z" fill="#250000" />
  <path d="M635 857h1v1h-1z" fill="#250000" />
  <path d="M1213 859h1v1h-1z" fill="#250000" />
  <path d="M717 879h1v1h-1z" fill="#250000" />
  <path d="M709 884h1v1h-1z" fill="#250000" />
  <path d="M707 885h1v1h-1z" fill="#250000" />
  <path d="M1183 886h1v1h-1z" fill="#250000" />
  <path d="M1180 887h1v1h-1z" fill="#250000" />
  <path d="M1468 909h1v1h-1z" fill="#250000" />
  <path d="M1464 943h1v1h-1z" fill="#250000" />
  <path d="M947 957h1v1h-1z" fill="#250000" />
  <path d="M897 958h2v1h-2z" fill="#250000" />
  <path d="M889 960h1v1h-1z" fill="#250000" />
  <path d="M1168 1319h1v1h-1z" fill="#250000" />
  <path d="M1160 1322h1v1h-1z" fill="#250000" />
  <path d="M1183 1323h1v1h-1z" fill="#250000" />
  <path d="M717 1331h1v1h-1z" fill="#250000" />
  <path d="M1319 1331h1v1h-1z" fill="#250000" />
  <path d="M1318 1332h1v1h-1z" fill="#250000" />
  <path d="M1309 1343h1v1h-1z" fill="#250000" />
  <path d="M1303 1351h1v1h-1z" fill="#250000" />
  <path d="M683 1357h1v1h-1z" fill="#250000" />
  <path d="M1197 1358h1v1h-1z" fill="#250000" />
  <path d="M1295 1362h1v1h-1z" fill="#250000" />
  <path d="M1199 1363h1v1h-1z" fill="#250000" />
  <path d="M659 1422h1v1h-1z" fill="#250000" />
  <path d="M1259 1449h1v1h-1z" fill="#250000" />
  <path d="M1232 1455h1v1h-1z" fill="#250000" />
  <path d="M1257 1459h1v1h-1z" fill="#250000" />
  <path d="M1651 1460h1v1h-1z" fill="#250000" />
  <path d="M1646 1472h1v1h-1z" fill="#250000" />
  <path d="M1263 1486h1v1h-1z" fill="#250000" />
  <path d="M1639 1487h1v1h-1z" fill="#250000" />
  <path d="M1269 1506h1v1h-1z" fill="#250000" />
  <path d="M630 1514h1v1h-1z" fill="#250000" />
  <path d="M1271 1514h1v1h-1z" fill="#250000" />
  <path d="M1250 1515h1v1h-1z" fill="#250000" />
  <path d="M1251 1519h1v1h-1z" fill="#250000" />
  <path d="M1272 1519h1v1h-1z" fill="#250000" />
  <path d="M1273 1524h1v1h-1z" fill="#250000" />
  <path d="M1609 1537h1v1h-1z" fill="#250000" />
  <path d="M1607 1540h1v1h-1z" fill="#250000" />
  <path d="M1601 1548h1v1h-1z" fill="#250000" />
  <path d="M1261 1569h1v1h-1z" fill="#250000" />
  <path d="M1144 1573h1v1h-1z" fill="#250000" />
  <path d="M1125 1584h1v1h-1z" fill="#250000" />
  <path d="M1283 1584h1v1h-1z" fill="#250000" />
  <path d="M1568 1586h1v1h-1z" fill="#250000" />
  <path d="M1145 1588h1v1h-1z" fill="#250000" />
  <path d="M735 1599h1v1h-1z" fill="#250000" />
  <path d="M1263 1606h1v1h-1z" fill="#250000" />
  <path d="M1541 1609h1v1h-1z" fill="#250000" />
  <path d="M736 1611h1v1h-1z" fill="#250000" />
  <path d="M1123 1612h1v1h-1z" fill="#250000" />
  <path d="M1537 1612h1v1h-1z" fill="#250000" />
  <path d="M1283 1613h1v1h-1z" fill="#250000" />
  <path d="M1143 1616h1v1h-1z" fill="#250000" />
  <path d="M618 1618h1v1h-1z" fill="#250000" />
  <path d="M619 1624h1v1h-1z" fill="#250000" />
  <path d="M1142 1629h1v1h-1z" fill="#250000" />
  <path d="M739 1636h1v1h-1z" fill="#250000" />
  <path d="M1141 1637h1v1h-1z" fill="#250000" />
  <path d="M1006 1640h1v1h-1z" fill="#250000" />
  <path d="M1255 1645h1v1h-1z" fill="#250000" />
  <path d="M1119 1649h1v1h-1z" fill="#250000" />
  <path d="M741 1652h1v1h-1z" fill="#250000" />
  <path d="M984 1652h1v1h-1z" fill="#250000" />
  <path d="M896 1653h1v1h-1z" fill="#250000" />
  <path d="M1138 1657h1v1h-1z" fill="#250000" />
  <path d="M983 1662h1v1h-1z" fill="#250000" />
  <path d="M1436 1664h1v1h-1z" fill="#250000" />
  <path d="M877 1665h1v1h-1z" fill="#250000" />
  <path d="M635 1667h1v1h-1z" fill="#250000" />
  <path d="M641 1675h1v1h-1z" fill="#250000" />
  <path d="M1275 1675h1v1h-1z" fill="#250000" />
  <path d="M1379 1676h1v1h-1z" fill="#250000" />
  <path d="M1002 1677h1v1h-1z" fill="#250000" />
  <path d="M1292 1677h1v1h-1z" fill="#250000" />
  <path d="M1369 1677h1v1h-1z" fill="#250000" />
  <path d="M878 1678h1v1h-1z" fill="#250000" />
  <path d="M1301 1678h1v1h-1z" fill="#250000" />
  <path d="M1359 1678h1v1h-1z" fill="#250000" />
  <path d="M1322 1679h1v1h-1z" fill="#250000" />
  <path d="M1329 1679h1v1h-1z" fill="#250000" />
  <path d="M1331 1679h1v1h-1z" fill="#250000" />
  <path d="M767 1682h1v1h-1z" fill="#250000" />
  <path d="M981 1682h1v1h-1z" fill="#250000" />
  <path d="M649 1685h1v1h-1z" fill="#250000" />
  <path d="M1112 1685h1v1h-1z" fill="#250000" />
  <path d="M748 1691h1v1h-1z" fill="#250000" />
  <path d="M750 1700h1v1h-1z" fill="#250000" />
  <path d="M668 1702h1v1h-1z" fill="#250000" />
  <path d="M1209 1704h1v1h-1z" fill="#250000" />
  <path d="M775 1713h1v1h-1z" fill="#250000" />
  <path d="M713 1722h1v1h-1z" fill="#250000" />
  <path d="M878 1722h1v1h-1z" fill="#250000" />
  <path d="M737 1725h1v1h-1z" fill="#250000" />
  <path d="M787 1747h1v1h-1z" fill="#250000" />
  <path d="M1008 1750h1v1h-1z" fill="#250000" />
  <path d="M790 1753h1v1h-1z" fill="#250000" />
  <path d="M1088 1756h1v1h-1z" fill="#250000" />
  <path d="M1011 1757h1v1h-1z" fill="#250000" />
  <path d="M1013 1760h1v1h-1z" fill="#250000" />
  <path d="M1015 1763h1v1h-1z" fill="#250000" />
  <path d="M797 1764h1v1h-1z" fill="#250000" />
  <path d="M1021 1770h1v1h-1z" fill="#250000" />
  <path d="M825 1780h1v1h-1z" fill="#250000" />
  <path d="M833 1780h1v1h-1z" fill="#250000" />
  <path d="M1043 1780h2v1h-2z" fill="#250000" />
</svg>
