<svg xmlns="http://www.w3.org/2000/svg" width="2048" height="2048" viewBox="0 0 2048 2048">
  <path d="M1478 261h1v1h-1z" fill="#FFFAFE" />
  <path d="M2047 436h1v1h-1z" fill="#FFFAFE" />
  <path d="M1486 810h1v1h-1z" fill="#FFFAFE" />
  <path d="M454 930h2v1h-2z" fill="#FFFAFE" />
  <path d="M614 947h1v1h-1z" fill="#FFFAFE" />
  <path d="M618 948h1v1h-1z" fill="#FFFAFE" />
  <path d="M1249 948h1v1h-1z" fill="#FFFAFE" />
  <path d="M1295 953h1v1h-1z" fill="#FFFAFE" />
  <path d="M555 955h1v1h-1z" fill="#FFFAFE" />
  <path d="M1198 1077h1v1h-1z" fill="#FFFAFE" />
  <path d="M1198 1078h1v1h-1z" fill="#FFFAFE" />
  <path d="M1202 1080h1v1h-1z" fill="#FFFAFE" />
  <path d="M626 1087h1v1h-1z" fill="#FFFAFE" />
  <path d="M1235 1374h1v1h-1z" fill="#FFFAFE" />
</svg>
